<svg xmlns="http://www.w3.org/2000/svg" width="429" height="429"><svg xmlns="http://www.w3.org/2000/svg" xmlns:xlink="http://www.w3.org/1999/xlink" width="429" height="429"><svg xmlns="http://www.w3.org/2000/svg" viewBox="0 0 429 429"><linearGradient id="a" x1="-90.5" x2="-89.5" y1="608.06" y2="608.06" gradientTransform="matrix(182 0 0 -74 16594 45339.5)" gradientUnits="userSpaceOnUse"><stop offset="0" stop-color="#d5a895"/><stop offset=".5" stop-color="#e8baab"/><stop offset="1" stop-color="#d5a895"/></linearGradient><path fill="url(#a)" d="M214 306c-35 0-67 9-91 25 22 30 54 49 91 49s69-19 91-49c-24-16-56-25-91-25z"/><linearGradient id="b" x1="-90.44" x2="-89.44" y1="610.16" y2="610.16" gradientTransform="matrix(162 0 0 -258 14784 157696.5)" gradientUnits="userSpaceOnUse"><stop offset="0" stop-color="#d5a895"/><stop offset=".5" stop-color="#e8baab"/><stop offset="1" stop-color="#d5a895"/></linearGradient><ellipse cx="214" cy="276" fill="url(#b)" rx="81" ry="129"/><linearGradient id="c" x1="-90.55" x2="-89.55" y1="610.16" y2="610.16" gradientTransform="matrix(204 0 0 -258 18585 157623.5)" gradientUnits="userSpaceOnUse"><stop offset="0" stop-color="#d5a895"/><stop offset=".5" stop-color="#e8baab"/><stop offset="1" stop-color="#d5a895"/></linearGradient><ellipse cx="214" cy="203" fill="url(#c)" rx="102" ry="129"/><radialGradient id="d" cx="-90.29" cy="608.78" r=".5" gradientTransform="matrix(429 0 0 -98 38948 60040.5)" gradientUnits="userSpaceOnUse"><stop offset="0" stop-color="#d9d048"/><stop offset="1" stop-color="#b9c038"/></radialGradient><path fill="url(#d)" d="m313 337-8-6c-22 30-55 49-91 49s-69-19-91-49l-8 6C58 351 9 398 0 429h429c-9-31-60-78-116-92z"/><linearGradient id="e" x1="-90.61" x2="-89.61" y1="609.88" y2="609.88" gradientTransform="matrix(236 0 0 -194 21481 118450.5)" gradientUnits="userSpaceOnUse"><stop offset="0" stop-color="#544749"/><stop offset=".3" stop-color="#605052"/><stop offset=".7" stop-color="#605052"/><stop offset="1" stop-color="#544749"/></linearGradient><path fill="url(#e)" d="M332 160c0-68-53-123-118-123S96 92 96 160c0 27 5 51 19 71-1-7 1-57 1-57 9-14 36-62 44-71 35.7 6.8 72.3 6.8 108 0 7 9 35 57 44 71 0 0 2 50 1 57 14-20 19-44 19-71z"/><linearGradient id="f" x1="-90.36" x2="-89.36" y1="609.62" y2="609.62" gradientTransform="matrix(142 0 0 -158 12974 96573.5)" gradientUnits="userSpaceOnUse"><stop offset="0" stop-color="#544749"/><stop offset=".3" stop-color="#605052"/><stop offset=".7" stop-color="#605052"/><stop offset="1" stop-color="#544749"/></linearGradient><path fill="url(#f)" d="M171 181c10 0 20 1 28 3-4-6-15-10-28-10s-23 4-28 10c9-2 18-3 28-3zm86 0c10 0 19 1 28 3-5-6-16-10-28-10s-24 4-28 10c8-2 18-3 28-3zm-28 71a39 39 0 0 1-30 0c-26 6-47 26-50 51 18 18 40 29 65 29s47-11 65-29c-4-25-24-45-50-51z"/><path fill="#efefef" d="M257 188c-9 0-17 2-23 7 6 5 14 8 23 8s16-3 22-8c-6-5-14-7-22-7zm-86 0c9 0 17 2 22 7-5 5-13 8-22 8s-16-3-22-8c6-5 13-7 22-7z"/><ellipse cx="204" cy="246" fill="#ad887b" rx="4" ry="2"/><ellipse cx="223" cy="246" fill="#ad887b" rx="4" ry="2"/><circle cx="257" cy="195" r="7" fill="#7d7f79"/><circle cx="257" cy="195" r="3" fill="#3c3233"/><circle cx="171" cy="195" r="7" fill="#7d7f79"/><circle cx="171" cy="195" r="3" fill="#3c3233"/><path fill="#fff" d="m170 194 1-1h-2l1 1zm44 85c-10 0-20-2-27-4v1c0 9 12 17 27 17s27-8 27-17v-1c-8 2-17 4-27 4zm42-85v-1h-1l1 1z"/></svg></svg></svg>
